<svg width="3300" height="2200" viewBox="0 0 3300 2200" fill="none" xmlns="http://www.w3.org/2000/svg">
<g id="waveform.path.badge.plus 1" clip-path="url(#clip0_1_2)">
<g id="Notes">
<path id="artboard" d="M3300 0H0V2200H3300V0Z" fill="white"/>
<path id="Vector" d="M263 292H3036" stroke="black" stroke-width="0.5"/>
<text id="Weight/Scale Variations" fill="black" xml:space="preserve" style="white-space: pre" font-family="Inter" font-size="13" font-weight="bold" letter-spacing="0em"><tspan x="263" y="321.727">Weight/Scale Variations</tspan></text>
<text id="Ultralight" fill="black" xml:space="preserve" style="white-space: pre" font-family="Inter" font-size="13" letter-spacing="0em"><tspan x="531.661" y="321.727">Ultralight</tspan></text>
<text id="Thin" fill="black" xml:space="preserve" style="white-space: pre" font-family="Inter" font-size="13" letter-spacing="0em"><tspan x="843.067" y="321.727">Thin</tspan></text>
<text id="Light" fill="black" xml:space="preserve" style="white-space: pre" font-family="Inter" font-size="13" letter-spacing="0em"><tspan x="1137.77" y="321.727">Light</tspan></text>
<text id="Regular" fill="black" xml:space="preserve" style="white-space: pre" font-family="Inter" font-size="13" letter-spacing="0em"><tspan x="1426.58" y="321.727">Regular</tspan></text>
<text id="Medium" fill="black" xml:space="preserve" style="white-space: pre" font-family="Inter" font-size="13" letter-spacing="0em"><tspan x="1721.99" y="321.727">Medium</tspan></text>
<text id="Semibold" fill="black" xml:space="preserve" style="white-space: pre" font-family="Inter" font-size="13" letter-spacing="0em"><tspan x="2014.65" y="321.727">Semibold</tspan></text>
<text id="Bold" fill="black" xml:space="preserve" style="white-space: pre" font-family="Inter" font-size="13" letter-spacing="0em"><tspan x="2326.29" y="321.727">Bold</tspan></text>
<text id="Heavy" fill="black" xml:space="preserve" style="white-space: pre" font-family="Inter" font-size="13" letter-spacing="0em"><tspan x="2617.32" y="321.727">Heavy</tspan></text>
<text id="Black" fill="black" xml:space="preserve" style="white-space: pre" font-family="Inter" font-size="13" letter-spacing="0em"><tspan x="2916.8" y="321.727">Black</tspan></text>
<path id="Vector_2" d="M263 1903H3036" stroke="black" stroke-width="0.5"/>
<g id="Group">
<path id="Vector_3" d="M272.248 1933.83C276.604 1933.83 280.139 1930.3 280.139 1925.95C280.139 1921.59 276.604 1918.07 272.248 1918.07C267.902 1918.07 264.367 1921.59 264.367 1925.95C264.367 1930.3 267.902 1933.83 272.248 1933.83ZM272.248 1932.35C268.713 1932.35 265.861 1929.48 265.861 1925.95C265.861 1922.41 268.713 1919.55 272.248 1919.55C275.783 1919.55 278.645 1922.41 278.645 1925.95C278.645 1929.48 275.783 1932.35 272.248 1932.35ZM268.654 1925.95C268.654 1926.38 268.957 1926.67 269.406 1926.67H271.506V1928.79C271.506 1929.23 271.799 1929.53 272.228 1929.53C272.678 1929.53 272.971 1929.23 272.971 1928.79V1926.67H275.09C275.529 1926.67 275.832 1926.38 275.832 1925.95C275.832 1925.51 275.529 1925.21 275.09 1925.21H272.971V1923.1C272.971 1922.65 272.678 1922.35 272.228 1922.35C271.799 1922.35 271.506 1922.65 271.506 1923.1V1925.21H269.406C268.957 1925.21 268.654 1925.51 268.654 1925.95Z" fill="black"/>
</g>
<g id="Group_2">
<path id="Vector_4" d="M293.215 1935.91C298.713 1935.91 303.176 1931.45 303.176 1925.95C303.176 1920.45 298.713 1915.99 293.215 1915.99C287.717 1915.99 283.254 1920.45 283.254 1925.95C283.254 1931.45 287.717 1935.91 293.215 1935.91ZM293.215 1934.25C288.625 1934.25 284.914 1930.54 284.914 1925.95C284.914 1921.36 288.625 1917.65 293.215 1917.65C297.805 1917.65 301.516 1921.36 301.516 1925.95C301.516 1930.54 297.805 1934.25 293.215 1934.25ZM288.684 1925.95C288.684 1926.43 289.016 1926.75 289.514 1926.75H292.385V1929.63C292.385 1930.12 292.717 1930.46 293.195 1930.46C293.684 1930.46 294.026 1930.13 294.026 1929.63V1926.75H296.906C297.395 1926.75 297.736 1926.43 297.736 1925.95C297.736 1925.46 297.395 1925.12 296.906 1925.12H294.026V1922.25C294.026 1921.75 293.684 1921.41 293.195 1921.41C292.717 1921.41 292.385 1921.75 292.385 1922.25V1925.12H289.514C289.016 1925.12 288.684 1925.46 288.684 1925.95Z" fill="black"/>
</g>
<g id="Group_3">
<path id="Vector_5" d="M319.895 1938.66C326.916 1938.66 332.619 1932.97 332.619 1925.95C332.619 1918.93 326.916 1913.22 319.895 1913.22C312.873 1913.22 307.18 1918.93 307.18 1925.95C307.18 1932.97 312.873 1938.66 319.895 1938.66ZM319.895 1936.85C313.869 1936.85 308.996 1931.97 308.996 1925.95C308.996 1919.92 313.869 1915.05 319.895 1915.05C325.92 1915.05 330.793 1919.92 330.793 1925.95C330.793 1931.97 325.92 1936.85 319.895 1936.85ZM314.123 1925.95C314.123 1926.47 314.494 1926.83 315.041 1926.83H318.987V1930.78C318.987 1931.32 319.358 1931.7 319.875 1931.7C320.412 1931.7 320.783 1931.33 320.783 1930.78V1926.83H324.739C325.276 1926.83 325.657 1926.47 325.657 1925.95C325.657 1925.4 325.285 1925.03 324.739 1925.03H320.783V1921.09C320.783 1920.54 320.412 1920.16 319.875 1920.16C319.358 1920.16 318.987 1920.54 318.987 1921.09V1925.03H315.041C314.494 1925.03 314.123 1925.4 314.123 1925.95Z" fill="black"/>
</g>
<text id="Design Variations" fill="black" xml:space="preserve" style="white-space: pre" font-family="Inter" font-size="13" font-weight="bold" letter-spacing="0em"><tspan x="263" y="1952.73">Design Variations</tspan></text>
<text id="Symbols are supported in up to nine weights and three scales." fill="black" xml:space="preserve" style="white-space: pre" font-family="Inter" font-size="13" letter-spacing="0em"><tspan x="263" y="1970.73">Symbols are supported in up to nine weights and three scales.</tspan></text>
<text id="For optimal layout with text and other symbols, vertically align" fill="black" xml:space="preserve" style="white-space: pre" font-family="Inter" font-size="13" letter-spacing="0em"><tspan x="263" y="1988.73">For optimal layout with text and other symbols, vertically align</tspan></text>
<text id="symbols with the adjacent text." fill="black" xml:space="preserve" style="white-space: pre" font-family="Inter" font-size="13" letter-spacing="0em"><tspan x="263" y="2006.73">symbols with the adjacent text.</tspan></text>
<path id="Vector_6" d="M776 1919V1933" stroke="#00AEEF" stroke-width="0.5"/>
<g id="Group_4">
<path id="Vector_7" d="M779.311 1933.16C779.828 1933.16 780.082 1932.96 780.268 1932.41L781.527 1928.97H787.289L788.549 1932.41C788.734 1932.96 788.988 1933.16 789.496 1933.16C790.014 1933.16 790.346 1932.84 790.346 1932.36C790.346 1932.19 790.316 1932.03 790.238 1931.83L785.658 1919.63C785.434 1919.04 785.033 1918.73 784.408 1918.73C783.803 1918.73 783.393 1919.03 783.178 1919.62L778.598 1931.84C778.52 1932.04 778.49 1932.2 778.49 1932.37C778.49 1932.85 778.803 1933.16 779.311 1933.16ZM782.006 1927.48L784.379 1920.91H784.428L786.801 1927.48H782.006Z" fill="black"/>
</g>
<path id="Vector_8" d="M792.836 1919V1933" stroke="#00AEEF" stroke-width="0.5"/>
<text id="Margins" fill="black" xml:space="preserve" style="white-space: pre" font-family="Inter" font-size="13" font-weight="bold" letter-spacing="0em"><tspan x="776" y="1952.73">Margins</tspan></text>
<text id="Leading and trailing margins on the left and right side of each symbol" fill="black" xml:space="preserve" style="white-space: pre" font-family="Inter" font-size="13" letter-spacing="0em"><tspan x="776" y="1970.73">Leading and trailing margins on the left and right side of each symbol</tspan></text>
<text id="can be adjusted by modifying the x-location of the margin guidelines." fill="black" xml:space="preserve" style="white-space: pre" font-family="Inter" font-size="13" letter-spacing="0em"><tspan x="776" y="1988.73">can be adjusted by modifying the x-location of the margin guidelines.</tspan></text>
<text id="Modifications are automatically applied proportionally to all" fill="black" xml:space="preserve" style="white-space: pre" font-family="Inter" font-size="13" letter-spacing="0em"><tspan x="776" y="2006.73">Modifications are automatically applied proportionally to all</tspan></text>
<text id="scales and weights." fill="black" xml:space="preserve" style="white-space: pre" font-family="Inter" font-size="13" letter-spacing="0em"><tspan x="776" y="2024.73">scales and weights.</tspan></text>
<g id="Group_5">
<path id="Vector_9" d="M1291.84 1934.87L1293.54 1936.57C1294.4 1937.44 1295.39 1937.38 1296.31 1936.36L1307.01 1924.57L1306.04 1923.6L1295.43 1935.28C1295.07 1935.68 1294.74 1935.77 1294.27 1935.3L1293.1 1934.14C1292.63 1933.68 1292.74 1933.34 1293.14 1932.98L1304.62 1922.18L1303.64 1921.21L1292.05 1932.1C1291.06 1933.02 1290.98 1934 1291.84 1934.87ZM1298.26 1916.67C1297.84 1917.08 1297.81 1917.66 1298.04 1918.05C1298.28 1918.41 1298.74 1918.64 1299.38 1918.48C1300.85 1918.14 1302.37 1918.08 1303.79 1919.02L1303.21 1920.47C1302.87 1921.3 1303.04 1921.89 1303.58 1922.43L1305.88 1924.75C1306.36 1925.24 1306.77 1925.26 1307.34 1925.16L1308.4 1924.96L1309.07 1925.64L1309.03 1926.19C1308.99 1926.69 1309.12 1927.07 1309.61 1927.55L1310.37 1928.29C1310.85 1928.77 1311.46 1928.8 1311.93 1928.33L1314.84 1925.41C1315.31 1924.94 1315.29 1924.35 1314.81 1923.87L1314.04 1923.11C1313.56 1922.63 1313.19 1922.47 1312.71 1922.51L1312.13 1922.56L1311.49 1921.93L1311.73 1920.8C1311.86 1920.24 1311.71 1919.8 1311.12 1919.21L1308.92 1917.02C1305.58 1913.7 1301.15 1913.78 1298.26 1916.67ZM1299.75 1917.04C1302.18 1915.27 1305.47 1915.57 1307.7 1917.79L1310.13 1920.21C1310.37 1920.44 1310.41 1920.63 1310.34 1920.97L1310.02 1922.45L1311.52 1923.94L1312.51 1923.88C1312.76 1923.87 1312.84 1923.89 1313.03 1924.08L1313.61 1924.66L1311.17 1927.1L1310.59 1926.53C1310.4 1926.33 1310.37 1926.25 1310.38 1925.99L1310.45 1925.01L1308.95 1923.53L1307.43 1923.78C1307.11 1923.85 1306.96 1923.82 1306.71 1923.59L1304.71 1921.58C1304.46 1921.35 1304.43 1921.18 1304.59 1920.81L1305.46 1918.72C1303.9 1917.27 1301.87 1916.64 1299.84 1917.24C1299.68 1917.28 1299.63 1917.15 1299.75 1917.04Z" fill="black"/>
</g>
<text id="Exporting" fill="black" xml:space="preserve" style="white-space: pre" font-family="Inter" font-size="13" font-weight="bold" letter-spacing="0em"><tspan x="1289" y="1952.73">Exporting</tspan></text>
<text id="Symbols should be outlined when exporting to ensure the" fill="black" xml:space="preserve" style="white-space: pre" font-family="Inter" font-size="13" letter-spacing="0em"><tspan x="1289" y="1970.73">Symbols should be outlined when exporting to ensure the</tspan></text>
<text id="design is preserved when submitting to Xcode." fill="black" xml:space="preserve" style="white-space: pre" font-family="Inter" font-size="13" letter-spacing="0em"><tspan x="1289" y="1988.73">design is preserved when submitting to Xcode.</tspan></text>
<text id="template-version" fill="black" xml:space="preserve" style="white-space: pre" font-family="Inter" font-size="13" letter-spacing="0em"><tspan x="2946.54" y="1932.73">Template v.6.0</tspan></text>
<text id="Requires Xcode 16 or greater" fill="black" xml:space="preserve" style="white-space: pre" font-family="Inter" font-size="13" letter-spacing="0em"><tspan x="2858.16" y="1950.73">Requires Xcode 16 or greater</tspan></text>
<text id="descriptive-name" fill="black" xml:space="preserve" style="white-space: pre" font-family="Inter" font-size="13" letter-spacing="0em"><tspan x="2772.15" y="1968.73">Generated from waveform.path.badge.plus</tspan></text>
<text id="Typeset at 100.0 points" fill="black" xml:space="preserve" style="white-space: pre" font-family="Inter" font-size="13" letter-spacing="0em"><tspan x="2892.56" y="1986.73">Typeset at 100.0 points</tspan></text>
<text id="Small" fill="black" xml:space="preserve" style="white-space: pre" font-family="Inter" font-size="13" letter-spacing="0em"><tspan x="263" y="725.727">Small</tspan></text>
<text id="Medium_2" fill="black" xml:space="preserve" style="white-space: pre" font-family="Inter" font-size="13" letter-spacing="0em"><tspan x="263" y="1155.73">Medium</tspan></text>
<text id="Large" fill="black" xml:space="preserve" style="white-space: pre" font-family="Inter" font-size="13" letter-spacing="0em"><tspan x="263" y="1585.73">Large</tspan></text>
</g>
<g id="Guides">
<g id="H-reference">
<path id="Vector_10" d="M339.994 696H342.638L368.328 628.868H369.03V625.541H367.123L339.994 696ZM350.688 671.52H385.981L385.231 669.272H351.438L350.688 671.52ZM394.12 696H396.764L369.638 625.541H368.433V628.868L394.12 696Z" fill="#27AAE1"/>
</g>
<path id="Baseline-S" d="M263 696H3036" stroke="#27AAE1" stroke-width="0.5"/>
<path id="Capline-S" d="M263 625.541H3036" stroke="#27AAE1" stroke-width="0.5"/>
<g id="H-reference_2">
<path id="Vector_11" d="M339.994 1126H342.638L368.328 1058.87H369.03V1055.54H367.123L339.994 1126ZM350.688 1101.52H385.981L385.231 1099.27H351.438L350.688 1101.52ZM394.12 1126H396.764L369.638 1055.54H368.433V1058.87L394.12 1126Z" fill="#27AAE1"/>
</g>
<path id="Baseline-M" d="M263 1126H3036" stroke="#27AAE1" stroke-width="0.5"/>
<path id="Capline-M" d="M263 1055.54H3036" stroke="#27AAE1" stroke-width="0.5"/>
<g id="H-reference_3">
<path id="Vector_12" d="M339.994 1556H342.638L368.328 1488.87H369.03V1485.54H367.123L339.994 1556ZM350.688 1531.52H385.981L385.231 1529.27H351.438L350.688 1531.52ZM394.12 1556H396.764L369.638 1485.54H368.433V1488.87L394.12 1556Z" fill="#27AAE1"/>
</g>
<path id="Baseline-L" d="M263 1556H3036" stroke="#27AAE1" stroke-width="0.5"/>
<path id="Capline-L" d="M263 1485.54H3036" stroke="#27AAE1" stroke-width="0.5"/>
<path id="right-margin-Black-S" d="M2992.73 600.785V720.121" stroke="#00AEEF" stroke-width="0.5"/>
<path id="left-margin-Black-S" d="M2874.07 600.785V720.121" stroke="#FF3B30" stroke-width="0.5"/>
<path id="right-margin-Regular-S" d="M1504.43 600.785V720.121" stroke="#00AEEF" stroke-width="0.5"/>
<path id="left-margin-Regular-S" d="M1395.25 600.785V720.121" stroke="#FF3B30" stroke-width="0.5"/>
<path id="right-margin-Ultralight-S" d="M615.096 600.785V720.121" stroke="#00AEEF" stroke-width="0.5"/>
<path id="left-margin-Ultralight-S" d="M504.327 600.785V720.121" stroke="#FF3B30" stroke-width="0.5"/>
</g>
<g id="Symbols">
<g id="Black-S">
<g id="wave.ruler 1" clip-path="url(#clip1_1_2)">
<g id="Canvas_3">
<g id="Canvas_3_Layer_1">
<g id="Graphic_10">
<path id="Vector_13" d="M2971.58 662.106L2972.76 666.637C2973.2 668.546 2974.54 669.182 2976 669.182H2989.43C2991.72 669.182 2993.5 667.464 2993.5 665.238C2993.5 662.947 2991.72 661.166 2989.43 661.166H2978.49L2974.54 646.278C2973.59 642.524 2968.69 642.524 2967.92 646.278L2962.13 673.191L2955.45 629.544C2954.82 625.472 2949.15 625.536 2948.71 629.544L2942.79 680.253L2936.3 606.258C2935.92 602.058 2929.75 602.058 2929.43 606.258L2924.78 658.72C2927.35 659.177 2929.62 660.466 2931.32 662.298L2932.87 644.941L2939.04 714.165C2939.36 718.364 2945.27 718.364 2945.78 714.165L2952.59 655.376L2958.32 692.469C2958.76 695.841 2964.23 695.841 2965 692.469L2971.58 662.106ZM2902.38 694.6C2903.46 695.131 2904.83 695.131 2905.87 694.6H2902.38ZM2917.62 694.6L2919.89 714.165C2920.4 718.364 2926.31 718.3 2926.7 714.165L2928.58 693.03C2926.85 694.029 2924.85 694.6 2922.71 694.6H2917.62ZM2920.37 658.538L2917.02 629.544C2916.52 625.472 2910.85 625.472 2910.22 629.544L2905.78 658.538H2912.6L2913.08 655.376L2913.45 658.538H2920.37ZM2900.42 658.538L2897.81 646.278C2897.05 642.778 2892.08 642.778 2891.13 646.278L2887.93 658.538H2893.32H2894.73H2900.42Z" stroke="black" stroke-width="0.5" stroke-linejoin="round"/>
</g>
<g id="Graphic_4">
<path id="Vector_14" d="M2931.02 669.215C2931.02 664.401 2928.58 661.961 2923.7 661.961H2873.52C2868.64 661.961 2866.2 664.368 2866.2 669.215V683.923C2866.2 688.737 2868.67 691.177 2873.56 691.177H2923.7C2928.61 691.177 2931.02 688.737 2931.02 683.923V669.215ZM2874.02 666.775V679.143C2874.02 679.778 2873.59 680.28 2872.89 680.28C2872.29 680.28 2871.75 679.812 2871.75 679.177V666.775H2874.02ZM2879.2 666.775V674.53C2879.2 675.165 2878.74 675.667 2878.03 675.667C2877.43 675.667 2876.9 675.199 2876.9 674.563V666.775H2879.2ZM2884.35 666.775V674.53C2884.35 675.165 2883.88 675.667 2883.22 675.667C2882.58 675.667 2882.05 675.199 2882.05 674.563V666.775H2884.35ZM2889.47 666.775V674.53C2889.47 675.165 2889 675.667 2888.33 675.667C2887.7 675.667 2887.19 675.199 2887.19 674.563V666.775H2889.47ZM2894.62 666.775V674.53C2894.62 675.165 2894.18 675.667 2893.48 675.667C2892.88 675.667 2892.34 675.199 2892.34 674.563V666.775H2894.62ZM2899.76 666.775V679.143C2899.76 679.778 2899.3 680.28 2898.59 680.28C2897.99 680.28 2897.46 679.812 2897.46 679.177V666.775H2899.76ZM2904.91 666.775V674.53C2904.91 675.165 2904.44 675.667 2903.77 675.667C2903.14 675.667 2902.6 675.199 2902.6 674.563V666.775H2904.91ZM2910.06 666.775V674.53C2910.06 675.165 2909.59 675.667 2908.92 675.667C2908.29 675.667 2907.79 675.199 2907.79 674.563V666.775H2910.06ZM2915.17 666.775V674.53C2915.17 675.165 2914.74 675.667 2914.04 675.667C2913.44 675.667 2912.9 675.199 2912.9 674.563V666.775H2915.17ZM2920.36 666.775V674.53C2920.36 675.165 2919.89 675.667 2919.19 675.667C2918.58 675.667 2918.05 675.199 2918.05 674.563V666.775H2920.36ZM2925.47 666.775V679.143C2925.47 679.778 2925 680.28 2924.33 680.28C2923.7 680.28 2923.16 679.812 2923.16 679.177V666.775H2925.47Z" stroke="black" stroke-width="0.5" stroke-linejoin="round"/>
</g>
</g>
</g>
</g>
</g>
<g id="Regular-S">
<g id="wave.ruler 1_2" clip-path="url(#clip2_1_2)">
<g id="Canvas_3_2">
<g id="Canvas_3_Layer_1_2">
<g id="Graphic_10_2">
<path id="Vector_15" d="M1480.62 661.594L1481.53 665.107C1481.88 666.586 1482.92 667.079 1484.05 667.079H1494.46C1496.23 667.079 1497.61 665.748 1497.61 664.021C1497.61 662.246 1496.23 660.865 1494.46 660.865H1485.97L1482.92 649.324C1482.18 646.414 1478.38 646.414 1477.79 649.324L1473.3 670.187L1468.12 636.352C1467.63 633.196 1463.24 633.245 1462.89 636.352L1458.3 675.661L1453.27 618.301C1452.98 615.045 1448.19 615.045 1447.95 618.301L1444.34 658.969C1446.33 659.323 1448.1 660.322 1449.41 661.743L1450.61 648.288L1455.39 701.95C1455.64 705.205 1460.23 705.205 1460.62 701.95L1465.9 656.377L1470.34 685.131C1470.68 687.745 1474.93 687.745 1475.52 685.131L1480.62 661.594ZM1426.98 686.783C1427.82 687.194 1428.87 687.194 1429.68 686.783H1426.98ZM1438.79 686.783L1440.55 701.95C1440.94 705.205 1445.53 705.155 1445.83 701.95L1447.29 685.566C1445.95 686.34 1444.4 686.783 1442.74 686.783H1438.79ZM1440.92 658.828L1438.33 636.352C1437.93 633.196 1433.54 633.196 1433.05 636.352L1429.61 658.828H1434.9L1435.27 656.377L1435.55 658.828H1440.92ZM1425.46 658.828L1423.43 649.324C1422.84 646.611 1419 646.611 1418.26 649.324L1415.78 658.828H1419.96H1421.04H1425.46Z" stroke="black" stroke-width="0.5" stroke-linejoin="round"/>
</g>
<g id="Graphic_4_2">
<path id="Vector_16" d="M1449.18 667.105C1449.18 663.373 1447.29 661.481 1443.5 661.481H1404.61C1400.82 661.481 1398.93 663.347 1398.93 667.105V678.506C1398.93 682.238 1400.85 684.13 1404.63 684.13H1443.5C1447.31 684.13 1449.18 682.238 1449.18 678.506V667.105ZM1404.99 665.213V674.801C1404.99 675.293 1404.66 675.682 1404.11 675.682C1403.65 675.682 1403.23 675.319 1403.23 674.827V665.213H1404.99ZM1409.01 665.213V671.225C1409.01 671.717 1408.65 672.106 1408.1 672.106C1407.64 672.106 1407.22 671.743 1407.22 671.251V665.213H1409.01ZM1413 665.213V671.225C1413 671.717 1412.64 672.106 1412.12 672.106C1411.63 672.106 1411.21 671.743 1411.21 671.251V665.213H1413ZM1416.97 665.213V671.225C1416.97 671.717 1416.6 672.106 1416.09 672.106C1415.59 672.106 1415.2 671.743 1415.2 671.251V665.213H1416.97ZM1420.96 665.213V671.225C1420.96 671.717 1420.62 672.106 1420.08 672.106C1419.61 672.106 1419.2 671.743 1419.2 671.251V665.213H1420.96ZM1424.95 665.213V674.801C1424.95 675.293 1424.59 675.682 1424.04 675.682C1423.57 675.682 1423.16 675.319 1423.16 674.827V665.213H1424.95ZM1428.94 665.213V671.225C1428.94 671.717 1428.58 672.106 1428.06 672.106C1427.57 672.106 1427.15 671.743 1427.15 671.251V665.213H1428.94ZM1432.93 665.213V671.225C1432.93 671.717 1432.57 672.106 1432.05 672.106C1431.56 672.106 1431.17 671.743 1431.17 671.251V665.213H1432.93ZM1436.89 665.213V671.225C1436.89 671.717 1436.56 672.106 1436.01 672.106C1435.55 672.106 1435.13 671.743 1435.13 671.251V665.213H1436.89ZM1440.91 665.213V671.225C1440.91 671.717 1440.55 672.106 1440 672.106C1439.54 672.106 1439.12 671.743 1439.12 671.251V665.213H1440.91ZM1444.88 665.213V674.801C1444.88 675.293 1444.51 675.682 1443.99 675.682C1443.5 675.682 1443.09 675.319 1443.09 674.827V665.213H1444.88Z" stroke="black" stroke-width="0.5" stroke-linejoin="round"/>
</g>
</g>
</g>
</g>
</g>
<g id="Ultralight-S">
<g id="wave.ruler 1_3" clip-path="url(#clip3_1_2)">
<g id="Canvas_3_3">
<g id="Canvas_3_Layer_1_3">
<g id="Graphic_10_3">
<path id="Vector_17" d="M584.691 662.483L585.408 665.233C585.678 666.392 586.489 666.778 587.377 666.778H595.526C596.916 666.778 597.997 665.735 597.997 664.384C597.997 662.993 596.916 661.912 595.526 661.912H588.883L586.489 652.875C585.91 650.597 582.936 650.597 582.473 652.875L578.958 669.211L574.903 642.719C574.517 640.247 571.08 640.286 570.81 642.719L567.218 673.498L563.279 628.584C563.047 626.035 559.301 626.035 559.108 628.584L556.288 660.428C557.844 660.705 559.224 661.487 560.255 662.599L561.194 652.064L564.94 694.081C565.133 696.63 568.724 696.63 569.033 694.081L573.166 658.398L576.641 680.913C576.912 682.959 580.233 682.959 580.696 680.913L584.691 662.483ZM542.691 682.206C543.347 682.528 544.174 682.528 544.805 682.206H542.691ZM551.94 682.206L553.316 694.081C553.625 696.63 557.216 696.592 557.448 694.081L558.591 681.253C557.544 681.859 556.328 682.206 555.031 682.206H551.94ZM553.609 660.317L551.578 642.719C551.269 640.247 547.832 640.247 547.446 642.719L544.752 660.317H548.89L549.183 658.398L549.406 660.317H553.609ZM541.498 660.317L539.915 652.875C539.451 650.751 536.439 650.751 535.86 652.875L533.92 660.317H537.192H538.043H541.498Z" stroke="black" stroke-width="0.5" stroke-linejoin="round"/>
</g>
<g id="Graphic_4_3">
<path id="Vector_18" d="M560.072 666.798C560.072 663.876 558.591 662.395 555.628 662.395H525.173C522.21 662.395 520.729 663.856 520.729 666.798V675.726C520.729 678.647 522.231 680.129 525.193 680.129H555.628C558.611 680.129 560.072 678.647 560.072 675.726V666.798ZM525.477 665.317V672.824C525.477 673.21 525.213 673.514 524.787 673.514C524.422 673.514 524.097 673.23 524.097 672.844V665.317H525.477ZM528.622 665.317V670.024C528.622 670.41 528.338 670.714 527.912 670.714C527.547 670.714 527.222 670.43 527.222 670.044V665.317H528.622ZM531.747 665.317V670.024C531.747 670.41 531.463 670.714 531.057 670.714C530.671 670.714 530.347 670.43 530.347 670.044V665.317H531.747ZM534.851 665.317V670.024C534.851 670.41 534.567 670.714 534.161 670.714C533.776 670.714 533.471 670.43 533.471 670.044V665.317H534.851ZM537.976 665.317V670.024C537.976 670.41 537.712 670.714 537.286 670.714C536.921 670.714 536.596 670.43 536.596 670.044V665.317H537.976ZM541.101 665.317V672.824C541.101 673.21 540.816 673.514 540.39 673.514C540.025 673.514 539.7 673.23 539.7 672.844V665.317H541.101ZM544.225 665.317V670.024C544.225 670.41 543.941 670.714 543.535 670.714C543.15 670.714 542.825 670.43 542.825 670.044V665.317H544.225ZM547.35 665.317V670.024C547.35 670.41 547.066 670.714 546.66 670.714C546.274 670.714 545.97 670.43 545.97 670.044V665.317H547.35ZM550.454 665.317V670.024C550.454 670.41 550.19 670.714 549.764 670.714C549.399 670.714 549.075 670.43 549.075 670.044V665.317H550.454ZM553.599 665.317V670.024C553.599 670.41 553.315 670.714 552.889 670.714C552.524 670.714 552.199 670.43 552.199 670.044V665.317H553.599ZM556.704 665.317V672.824C556.704 673.21 556.42 673.514 556.014 673.514C555.628 673.514 555.304 673.23 555.304 672.844V665.317H556.704Z" stroke="black" stroke-width="0.5" stroke-linejoin="round"/>
</g>
</g>
</g>
</g>
</g>
</g>
</g>
<defs>
<clipPath id="clip0_1_2">
<rect width="3300" height="2200" fill="white"/>
</clipPath>
<clipPath id="clip1_1_2">
<rect width="129" height="115.97" fill="white" transform="translate(2865 602)"/>
</clipPath>
<clipPath id="clip2_1_2">
<rect width="100" height="89.899" fill="white" transform="translate(1398 615)"/>
</clipPath>
<clipPath id="clip3_1_2">
<rect width="78.3" height="70.3909" fill="white" transform="translate(520 626)"/>
</clipPath>
</defs>
</svg>
