<svg width="3300" height="2200" viewBox="0 0 3300 2200" fill="none" xmlns="http://www.w3.org/2000/svg">
<g id="waveform.path.badge.plus 1" clip-path="url(#clip0_1_2)">
<g id="Notes">
<path id="artboard" d="M3300 0H0V2200H3300V0Z" fill="white"/>
<path id="Vector" d="M263 292H3036" stroke="black" stroke-width="0.5"/>
<text id="Weight/Scale Variations" fill="black" xml:space="preserve" style="white-space: pre" font-family="Inter" font-size="13" font-weight="bold" letter-spacing="0em"><tspan x="263" y="321.727">Weight/Scale Variations</tspan></text>
<text id="Ultralight" fill="black" xml:space="preserve" style="white-space: pre" font-family="Inter" font-size="13" letter-spacing="0em"><tspan x="531.661" y="321.727">Ultralight</tspan></text>
<text id="Thin" fill="black" xml:space="preserve" style="white-space: pre" font-family="Inter" font-size="13" letter-spacing="0em"><tspan x="843.067" y="321.727">Thin</tspan></text>
<text id="Light" fill="black" xml:space="preserve" style="white-space: pre" font-family="Inter" font-size="13" letter-spacing="0em"><tspan x="1137.77" y="321.727">Light</tspan></text>
<text id="Regular" fill="black" xml:space="preserve" style="white-space: pre" font-family="Inter" font-size="13" letter-spacing="0em"><tspan x="1426.58" y="321.727">Regular</tspan></text>
<text id="Medium" fill="black" xml:space="preserve" style="white-space: pre" font-family="Inter" font-size="13" letter-spacing="0em"><tspan x="1721.99" y="321.727">Medium</tspan></text>
<text id="Semibold" fill="black" xml:space="preserve" style="white-space: pre" font-family="Inter" font-size="13" letter-spacing="0em"><tspan x="2014.65" y="321.727">Semibold</tspan></text>
<text id="Bold" fill="black" xml:space="preserve" style="white-space: pre" font-family="Inter" font-size="13" letter-spacing="0em"><tspan x="2326.29" y="321.727">Bold</tspan></text>
<text id="Heavy" fill="black" xml:space="preserve" style="white-space: pre" font-family="Inter" font-size="13" letter-spacing="0em"><tspan x="2617.32" y="321.727">Heavy</tspan></text>
<text id="Black" fill="black" xml:space="preserve" style="white-space: pre" font-family="Inter" font-size="13" letter-spacing="0em"><tspan x="2916.8" y="321.727">Black</tspan></text>
<path id="Vector_2" d="M263 1903H3036" stroke="black" stroke-width="0.5"/>
<g id="Group">
<path id="Vector_3" d="M272.248 1933.83C276.604 1933.83 280.139 1930.3 280.139 1925.95C280.139 1921.59 276.604 1918.07 272.248 1918.07C267.902 1918.07 264.367 1921.59 264.367 1925.95C264.367 1930.3 267.902 1933.83 272.248 1933.83ZM272.248 1932.35C268.713 1932.35 265.861 1929.48 265.861 1925.95C265.861 1922.41 268.713 1919.55 272.248 1919.55C275.783 1919.55 278.645 1922.41 278.645 1925.95C278.645 1929.48 275.783 1932.35 272.248 1932.35ZM268.654 1925.95C268.654 1926.38 268.957 1926.67 269.406 1926.67H271.506V1928.79C271.506 1929.23 271.799 1929.53 272.228 1929.53C272.678 1929.53 272.971 1929.23 272.971 1928.79V1926.67H275.09C275.529 1926.67 275.832 1926.38 275.832 1925.95C275.832 1925.51 275.529 1925.21 275.09 1925.21H272.971V1923.1C272.971 1922.65 272.678 1922.35 272.228 1922.35C271.799 1922.35 271.506 1922.65 271.506 1923.1V1925.21H269.406C268.957 1925.21 268.654 1925.51 268.654 1925.95Z" fill="black"/>
</g>
<g id="Group_2">
<path id="Vector_4" d="M293.215 1935.91C298.713 1935.91 303.176 1931.45 303.176 1925.95C303.176 1920.45 298.713 1915.99 293.215 1915.99C287.717 1915.99 283.254 1920.45 283.254 1925.95C283.254 1931.45 287.717 1935.91 293.215 1935.91ZM293.215 1934.25C288.625 1934.25 284.914 1930.54 284.914 1925.95C284.914 1921.36 288.625 1917.65 293.215 1917.65C297.805 1917.65 301.516 1921.36 301.516 1925.95C301.516 1930.54 297.805 1934.25 293.215 1934.25ZM288.684 1925.95C288.684 1926.43 289.016 1926.75 289.514 1926.75H292.385V1929.63C292.385 1930.12 292.717 1930.46 293.195 1930.46C293.684 1930.46 294.026 1930.13 294.026 1929.63V1926.75H296.906C297.395 1926.75 297.736 1926.43 297.736 1925.95C297.736 1925.46 297.395 1925.12 296.906 1925.12H294.026V1922.25C294.026 1921.75 293.684 1921.41 293.195 1921.41C292.717 1921.41 292.385 1921.75 292.385 1922.25V1925.12H289.514C289.016 1925.12 288.684 1925.46 288.684 1925.95Z" fill="black"/>
</g>
<g id="Group_3">
<path id="Vector_5" d="M319.895 1938.66C326.916 1938.66 332.619 1932.97 332.619 1925.95C332.619 1918.93 326.916 1913.22 319.895 1913.22C312.873 1913.22 307.18 1918.93 307.18 1925.95C307.18 1932.97 312.873 1938.66 319.895 1938.66ZM319.895 1936.85C313.869 1936.85 308.996 1931.97 308.996 1925.95C308.996 1919.92 313.869 1915.05 319.895 1915.05C325.92 1915.05 330.793 1919.92 330.793 1925.95C330.793 1931.97 325.92 1936.85 319.895 1936.85ZM314.123 1925.95C314.123 1926.47 314.494 1926.83 315.041 1926.83H318.987V1930.78C318.987 1931.32 319.358 1931.7 319.875 1931.7C320.412 1931.7 320.783 1931.33 320.783 1930.78V1926.83H324.739C325.276 1926.83 325.657 1926.47 325.657 1925.95C325.657 1925.4 325.285 1925.03 324.739 1925.03H320.783V1921.09C320.783 1920.54 320.412 1920.16 319.875 1920.16C319.358 1920.16 318.987 1920.54 318.987 1921.09V1925.03H315.041C314.494 1925.03 314.123 1925.4 314.123 1925.95Z" fill="black"/>
</g>
<text id="Design Variations" fill="black" xml:space="preserve" style="white-space: pre" font-family="Inter" font-size="13" font-weight="bold" letter-spacing="0em"><tspan x="263" y="1952.73">Design Variations</tspan></text>
<text id="Symbols are supported in up to nine weights and three scales." fill="black" xml:space="preserve" style="white-space: pre" font-family="Inter" font-size="13" letter-spacing="0em"><tspan x="263" y="1970.73">Symbols are supported in up to nine weights and three scales.</tspan></text>
<text id="For optimal layout with text and other symbols, vertically align" fill="black" xml:space="preserve" style="white-space: pre" font-family="Inter" font-size="13" letter-spacing="0em"><tspan x="263" y="1988.73">For optimal layout with text and other symbols, vertically align</tspan></text>
<text id="symbols with the adjacent text." fill="black" xml:space="preserve" style="white-space: pre" font-family="Inter" font-size="13" letter-spacing="0em"><tspan x="263" y="2006.73">symbols with the adjacent text.</tspan></text>
<path id="Vector_6" d="M776 1919V1933" stroke="#00AEEF" stroke-width="0.5"/>
<g id="Group_4">
<path id="Vector_7" d="M779.311 1933.16C779.828 1933.16 780.082 1932.96 780.268 1932.41L781.527 1928.97H787.289L788.549 1932.41C788.734 1932.96 788.988 1933.16 789.496 1933.16C790.014 1933.16 790.346 1932.84 790.346 1932.36C790.346 1932.19 790.316 1932.03 790.238 1931.83L785.658 1919.63C785.434 1919.04 785.033 1918.73 784.408 1918.73C783.803 1918.73 783.393 1919.03 783.178 1919.62L778.598 1931.84C778.52 1932.04 778.49 1932.2 778.49 1932.37C778.49 1932.85 778.803 1933.16 779.311 1933.16ZM782.006 1927.48L784.379 1920.91H784.428L786.801 1927.48H782.006Z" fill="black"/>
</g>
<path id="Vector_8" d="M792.836 1919V1933" stroke="#00AEEF" stroke-width="0.5"/>
<text id="Margins" fill="black" xml:space="preserve" style="white-space: pre" font-family="Inter" font-size="13" font-weight="bold" letter-spacing="0em"><tspan x="776" y="1952.73">Margins</tspan></text>
<text id="Leading and trailing margins on the left and right side of each symbol" fill="black" xml:space="preserve" style="white-space: pre" font-family="Inter" font-size="13" letter-spacing="0em"><tspan x="776" y="1970.73">Leading and trailing margins on the left and right side of each symbol</tspan></text>
<text id="can be adjusted by modifying the x-location of the margin guidelines." fill="black" xml:space="preserve" style="white-space: pre" font-family="Inter" font-size="13" letter-spacing="0em"><tspan x="776" y="1988.73">can be adjusted by modifying the x-location of the margin guidelines.</tspan></text>
<text id="Modifications are automatically applied proportionally to all" fill="black" xml:space="preserve" style="white-space: pre" font-family="Inter" font-size="13" letter-spacing="0em"><tspan x="776" y="2006.73">Modifications are automatically applied proportionally to all</tspan></text>
<text id="scales and weights." fill="black" xml:space="preserve" style="white-space: pre" font-family="Inter" font-size="13" letter-spacing="0em"><tspan x="776" y="2024.73">scales and weights.</tspan></text>
<g id="Group_5">
<path id="Vector_9" d="M1291.84 1934.87L1293.54 1936.57C1294.4 1937.44 1295.39 1937.38 1296.31 1936.36L1307.01 1924.57L1306.04 1923.6L1295.43 1935.28C1295.07 1935.68 1294.74 1935.77 1294.27 1935.3L1293.1 1934.14C1292.63 1933.68 1292.74 1933.34 1293.14 1932.98L1304.62 1922.18L1303.64 1921.21L1292.05 1932.1C1291.06 1933.02 1290.98 1934 1291.84 1934.87ZM1298.26 1916.67C1297.84 1917.08 1297.81 1917.66 1298.04 1918.05C1298.28 1918.41 1298.74 1918.64 1299.38 1918.48C1300.85 1918.14 1302.37 1918.08 1303.79 1919.02L1303.21 1920.47C1302.87 1921.3 1303.04 1921.89 1303.58 1922.43L1305.88 1924.75C1306.36 1925.24 1306.77 1925.26 1307.34 1925.16L1308.4 1924.96L1309.07 1925.64L1309.03 1926.19C1308.99 1926.69 1309.12 1927.07 1309.61 1927.55L1310.37 1928.29C1310.85 1928.77 1311.46 1928.8 1311.93 1928.33L1314.84 1925.41C1315.31 1924.94 1315.29 1924.35 1314.81 1923.87L1314.04 1923.11C1313.56 1922.63 1313.19 1922.47 1312.71 1922.51L1312.13 1922.56L1311.49 1921.93L1311.73 1920.8C1311.86 1920.24 1311.71 1919.8 1311.12 1919.21L1308.92 1917.02C1305.58 1913.7 1301.15 1913.78 1298.26 1916.67ZM1299.75 1917.04C1302.18 1915.27 1305.47 1915.57 1307.7 1917.79L1310.13 1920.21C1310.37 1920.44 1310.41 1920.63 1310.34 1920.97L1310.02 1922.45L1311.52 1923.94L1312.51 1923.88C1312.76 1923.87 1312.84 1923.89 1313.03 1924.08L1313.61 1924.66L1311.17 1927.1L1310.59 1926.53C1310.4 1926.33 1310.37 1926.25 1310.38 1925.99L1310.45 1925.01L1308.95 1923.53L1307.43 1923.78C1307.11 1923.85 1306.96 1923.82 1306.71 1923.59L1304.71 1921.58C1304.46 1921.35 1304.43 1921.18 1304.59 1920.81L1305.46 1918.72C1303.9 1917.27 1301.87 1916.64 1299.84 1917.24C1299.68 1917.28 1299.63 1917.15 1299.75 1917.04Z" fill="black"/>
</g>
<text id="Exporting" fill="black" xml:space="preserve" style="white-space: pre" font-family="Inter" font-size="13" font-weight="bold" letter-spacing="0em"><tspan x="1289" y="1952.73">Exporting</tspan></text>
<text id="Symbols should be outlined when exporting to ensure the" fill="black" xml:space="preserve" style="white-space: pre" font-family="Inter" font-size="13" letter-spacing="0em"><tspan x="1289" y="1970.73">Symbols should be outlined when exporting to ensure the</tspan></text>
<text id="design is preserved when submitting to Xcode." fill="black" xml:space="preserve" style="white-space: pre" font-family="Inter" font-size="13" letter-spacing="0em"><tspan x="1289" y="1988.73">design is preserved when submitting to Xcode.</tspan></text>
<text id="template-version" fill="black" xml:space="preserve" style="white-space: pre" font-family="Inter" font-size="13" letter-spacing="0em"><tspan x="2946.54" y="1932.73">Template v.6.0</tspan></text>
<text id="Requires Xcode 16 or greater" fill="black" xml:space="preserve" style="white-space: pre" font-family="Inter" font-size="13" letter-spacing="0em"><tspan x="2858.16" y="1950.73">Requires Xcode 16 or greater</tspan></text>
<text id="descriptive-name" fill="black" xml:space="preserve" style="white-space: pre" font-family="Inter" font-size="13" letter-spacing="0em"><tspan x="2772.15" y="1968.73">Generated from waveform.path.badge.plus</tspan></text>
<text id="Typeset at 100.0 points" fill="black" xml:space="preserve" style="white-space: pre" font-family="Inter" font-size="13" letter-spacing="0em"><tspan x="2892.56" y="1986.73">Typeset at 100.0 points</tspan></text>
<text id="Small" fill="black" xml:space="preserve" style="white-space: pre" font-family="Inter" font-size="13" letter-spacing="0em"><tspan x="263" y="725.727">Small</tspan></text>
<text id="Medium_2" fill="black" xml:space="preserve" style="white-space: pre" font-family="Inter" font-size="13" letter-spacing="0em"><tspan x="263" y="1155.73">Medium</tspan></text>
<text id="Large" fill="black" xml:space="preserve" style="white-space: pre" font-family="Inter" font-size="13" letter-spacing="0em"><tspan x="263" y="1585.73">Large</tspan></text>
</g>
<g id="Guides">
<g id="H-reference">
<path id="Vector_10" d="M339.994 696H342.638L368.328 628.868H369.03V625.541H367.123L339.994 696ZM350.688 671.52H385.981L385.231 669.272H351.438L350.688 671.52ZM394.12 696H396.764L369.638 625.541H368.433V628.868L394.12 696Z" fill="#27AAE1"/>
</g>
<path id="Baseline-S" d="M263 696H3036" stroke="#27AAE1" stroke-width="0.5"/>
<path id="Capline-S" d="M263 625.541H3036" stroke="#27AAE1" stroke-width="0.5"/>
<g id="H-reference_2">
<path id="Vector_11" d="M339.994 1126H342.638L368.328 1058.87H369.03V1055.54H367.123L339.994 1126ZM350.688 1101.52H385.981L385.231 1099.27H351.438L350.688 1101.52ZM394.12 1126H396.764L369.638 1055.54H368.433V1058.87L394.12 1126Z" fill="#27AAE1"/>
</g>
<path id="Baseline-M" d="M263 1126H3036" stroke="#27AAE1" stroke-width="0.5"/>
<path id="Capline-M" d="M263 1055.54H3036" stroke="#27AAE1" stroke-width="0.5"/>
<g id="H-reference_3">
<path id="Vector_12" d="M339.994 1556H342.638L368.328 1488.87H369.03V1485.54H367.123L339.994 1556ZM350.688 1531.52H385.981L385.231 1529.27H351.438L350.688 1531.52ZM394.12 1556H396.764L369.638 1485.54H368.433V1488.87L394.12 1556Z" fill="#27AAE1"/>
</g>
<path id="Baseline-L" d="M263 1556H3036" stroke="#27AAE1" stroke-width="0.5"/>
<path id="Capline-L" d="M263 1485.54H3036" stroke="#27AAE1" stroke-width="0.5"/>
<path id="right-margin-Black-S" d="M2992.73 600.785V720.121" stroke="#00AEEF" stroke-width="0.5"/>
<path id="left-margin-Black-S" d="M2874.07 600.785V720.121" stroke="#FF3B30" stroke-width="0.5"/>
<path id="right-margin-Regular-S" d="M1504.43 600.785V720.121" stroke="#00AEEF" stroke-width="0.5"/>
<path id="left-margin-Regular-S" d="M1395.25 600.785V720.121" stroke="#FF3B30" stroke-width="0.5"/>
<path id="right-margin-Ultralight-S" d="M615.096 600.785V720.121" stroke="#00AEEF" stroke-width="0.5"/>
<path id="left-margin-Ultralight-S" d="M504.327 600.785V720.121" stroke="#FF3B30" stroke-width="0.5"/>
</g>
<g id="Symbols">
<g id="Black-S">
<g id="wave.stopwatch 3" clip-path="url(#clip1_1_2)">
<g id="Canvas_2">
<g id="Canvas_2_Layer_2">
<g id="Graphic_17">
<path id="Vector_13" d="M2971.02 660.916L2972.18 665.358C2972.62 667.228 2973.93 667.852 2975.36 667.852H2988.52C2990.76 667.852 2992.51 666.168 2992.51 663.985C2992.51 661.74 2990.76 659.994 2988.52 659.994H2977.79L2973.93 645.401C2972.99 641.721 2968.19 641.721 2967.44 645.401L2961.77 671.781L2955.22 628.999C2954.59 625.008 2949.04 625.07 2948.61 628.999L2942.81 678.703L2936.45 606.173C2936.07 602.057 2930.02 602.057 2929.71 606.173L2923.29 678.703L2917.55 628.999C2917.05 625.008 2911.5 625.008 2910.88 628.999L2906.93 654.762C2907.39 655.168 2907.84 655.591 2908.28 656.031C2909.96 657.707 2911.39 659.531 2912.59 661.462L2913.68 654.319L2915.09 666.492C2916.93 671.262 2917.5 676.405 2916.82 681.41L2920.36 711.944C2920.85 716.06 2926.65 715.997 2927.03 711.944L2933.08 644.091L2939.13 711.944C2939.44 716.06 2945.24 716.06 2945.74 711.944L2952.41 654.319L2958.02 690.677C2958.46 693.983 2963.82 693.983 2964.57 690.677L2971.02 660.916ZM2899.7 650.016L2898.71 645.401C2897.97 641.971 2893.1 641.971 2892.17 645.401L2891.6 647.566C2894.38 647.994 2897.11 648.81 2899.7 650.016Z" stroke="black" stroke-width="0.5" stroke-linejoin="round"/>
</g>
<g id="Graphic_3">
<path id="Vector_14" d="M2886.98 699.853C2899.33 699.853 2909.61 689.602 2909.61 677.249C2909.61 664.897 2899.31 654.645 2886.95 654.645C2874.63 654.645 2864.38 664.897 2864.38 677.249C2864.38 689.602 2874.66 699.853 2886.98 699.853ZM2886.98 681.087C2884.85 681.087 2883.17 679.35 2883.17 677.277C2883.17 675.793 2884.01 674.504 2885.24 673.86V663.58C2885.24 662.6 2886 661.844 2886.95 661.844C2887.93 661.844 2888.69 662.6 2888.69 663.58V673.86C2889.95 674.476 2890.79 675.765 2890.79 677.277C2890.79 679.35 2889.11 681.087 2886.98 681.087ZM2884.32 655.85H2889.61V653.077C2889.61 651.564 2888.44 650.332 2886.95 650.332C2885.52 650.332 2884.32 651.564 2884.32 653.077V655.85ZM2900.59 660.639L2904.23 664.421L2906.39 662.236C2906.95 661.676 2907.29 660.919 2907.29 660.247C2907.29 658.847 2906.17 657.726 2904.74 657.726C2903.9 657.726 2903.31 657.978 2902.72 658.539L2900.59 660.639Z" stroke="black" stroke-width="0.5" stroke-linejoin="round"/>
</g>
</g>
</g>
</g>
</g>
<g id="Regular-S">
<g id="wave.stopwatch 3_2">
<g id="Canvas_2_2">
<g id="Canvas_2_Layer_2_2">
<g id="Graphic_17_2">
<path id="Vector_15" d="M1484.96 660.671L1485.86 664.114C1486.2 665.565 1487.21 666.048 1488.33 666.048H1498.53C1500.27 666.048 1501.62 664.743 1501.62 663.051C1501.62 661.31 1500.27 659.957 1498.53 659.957H1490.21L1487.21 648.644C1486.49 645.792 1482.77 645.792 1482.19 648.644L1477.79 669.094L1472.71 635.929C1472.23 632.835 1467.92 632.884 1467.59 635.929L1463.09 674.46L1458.16 618.235C1457.87 615.044 1453.18 615.044 1452.94 618.235L1447.96 674.46L1443.51 635.929C1443.12 632.835 1438.82 632.835 1438.34 635.929L1435.28 655.901C1435.64 656.216 1435.99 656.544 1436.33 656.884C1437.63 658.184 1438.74 659.598 1439.67 661.095L1440.51 655.557L1441.61 664.994C1443.03 668.692 1443.47 672.679 1442.95 676.558L1445.69 700.228C1446.07 703.418 1450.57 703.37 1450.86 700.228L1455.55 647.629L1460.24 700.228C1460.48 703.418 1464.98 703.418 1465.36 700.228L1470.54 655.557L1474.89 683.742C1475.22 686.305 1479.38 686.305 1479.96 683.742L1484.96 660.671ZM1429.67 652.222L1428.91 648.644C1428.33 645.985 1424.56 645.985 1423.83 648.644L1423.4 650.323C1425.55 650.654 1427.66 651.287 1429.67 652.222Z" stroke="black" stroke-width="0.5" stroke-linejoin="round"/>
</g>
<g id="Graphic_3_2">
<path id="Vector_16" d="M1419.81 690.855C1429.39 690.855 1437.36 682.908 1437.36 673.333C1437.36 663.757 1429.37 655.81 1419.79 655.81C1410.24 655.81 1402.29 663.757 1402.29 673.333C1402.29 682.908 1410.26 690.855 1419.81 690.855ZM1419.81 676.307C1418.16 676.307 1416.86 674.961 1416.86 673.354C1416.86 672.204 1417.51 671.205 1418.47 670.705V662.737C1418.47 661.977 1419.05 661.39 1419.79 661.39C1420.55 661.39 1421.14 661.977 1421.14 662.737V670.705C1422.12 671.183 1422.77 672.182 1422.77 673.354C1422.77 674.961 1421.46 676.307 1419.81 676.307ZM1417.75 656.744H1421.86V654.594C1421.86 653.422 1420.94 652.466 1419.79 652.466C1418.69 652.466 1417.75 653.422 1417.75 654.594V656.744ZM1430.37 660.457L1433.19 663.388L1434.86 661.694C1435.3 661.26 1435.56 660.674 1435.56 660.153C1435.56 659.067 1434.69 658.199 1433.58 658.199C1432.93 658.199 1432.47 658.394 1432.02 658.828L1430.37 660.457Z" stroke="black" stroke-width="0.5" stroke-linejoin="round"/>
</g>
</g>
</g>
</g>
</g>
<g id="Ultralight-S">
<g id="wave.stopwatch 3_3" clip-path="url(#clip2_1_2)">
<g id="Canvas_2_3">
<g id="Canvas_2_Layer_2_3">
<g id="Graphic_17_3">
<path id="Vector_17" d="M583.96 661.76L584.663 664.457C584.928 665.592 585.723 665.971 586.593 665.971H594.581C595.943 665.971 597.003 664.949 597.003 663.624C597.003 662.261 595.943 661.201 594.581 661.201H588.07L585.723 652.343C585.155 650.11 582.24 650.11 581.786 652.343L578.341 668.355L574.367 642.388C573.988 639.965 570.619 640.003 570.354 642.388L566.834 672.557L562.973 628.533C562.745 626.035 559.074 626.035 558.884 628.533L554.985 672.557L551.503 642.388C551.2 639.965 547.831 639.965 547.452 642.388L545.059 658.025C545.338 658.272 545.61 658.529 545.877 658.795C546.894 659.813 547.767 660.92 548.494 662.092L549.156 657.756L550.011 665.145C551.125 668.04 551.475 671.162 551.06 674.2L553.206 692.733C553.509 695.232 557.03 695.194 557.257 692.733L560.928 651.548L564.6 692.733C564.79 695.232 568.31 695.232 568.613 692.733L572.663 657.756L576.07 679.825C576.335 681.831 579.59 681.831 580.045 679.825L583.96 661.76ZM540.667 655.145L540.071 652.343C539.617 650.261 536.664 650.261 536.096 652.343L535.754 653.658C537.439 653.917 539.094 654.413 540.667 655.145Z" stroke="black" stroke-width="0.5" stroke-linejoin="round"/>
</g>
<g id="Graphic_3_3">
<path id="Vector_18" d="M532.949 685.395C540.446 685.395 546.686 679.172 546.686 671.675C546.686 664.177 540.429 657.954 532.932 657.954C525.451 657.954 519.229 664.177 519.229 671.675C519.229 679.172 525.468 685.395 532.949 685.395ZM532.949 674.004C531.657 674.004 530.636 672.95 530.636 671.692C530.636 670.79 531.147 670.008 531.895 669.617V663.378C531.895 662.783 532.354 662.324 532.932 662.324C533.527 662.324 533.986 662.783 533.986 663.378V669.617C534.751 669.991 535.261 670.773 535.261 671.692C535.261 672.95 534.241 674.004 532.949 674.004ZM531.334 658.686H534.547V657.002C534.547 656.084 533.833 655.336 532.932 655.336C532.065 655.336 531.334 656.084 531.334 657.002V658.686ZM541.211 661.593L543.422 663.888L544.731 662.562C545.071 662.222 545.275 661.763 545.275 661.355C545.275 660.505 544.595 659.825 543.728 659.825C543.218 659.825 542.861 659.978 542.503 660.318L541.211 661.593Z" stroke="black" stroke-width="0.5" stroke-linejoin="round"/>
</g>
</g>
</g>
</g>
</g>
</g>
</g>
<defs>
<clipPath id="clip0_1_2">
<rect width="3300" height="2200" fill="white"/>
</clipPath>
<clipPath id="clip1_1_2">
<rect width="129" height="113.673" fill="white" transform="translate(2864 602)"/>
</clipPath>
<clipPath id="clip2_1_2">
<rect width="78.3" height="68.997" fill="white" transform="translate(519 626)"/>
</clipPath>
</defs>
</svg>
